<svg id="Layer_1" data-name="Layer 1" xmlns="http://www.w3.org/2000/svg" viewBox="0 0 239.37 239.37"><defs><style>.cls-1{fill:#231f20;}.cls-2{fill:#fff;}</style></defs><title>roundlogo</title><circle class="cls-1" cx="119.69" cy="119.69" r="119.69"/><path class="cls-2" d="M162.82,37.84c-8.34,0-15.17,7.62-15.17,16.93v5.82c-1.78,3.87-7.87,5.75-7.87,5.75-13.4-1.29-13.62,6.47-13.62,6.47l-.43,44.51,5,6.08,4.1-6.47.87-36.87,6.48-5,5.5,5v81.36H178V54.77C178,45.46,171.17,37.84,162.82,37.84Z"/><path class="cls-2" d="M172.77,166.2H152.58c-3.8,0-6.32,5.14-4.74,9.66l10.09,28.83c1.86,5.32,7.63,5.32,9.49,0l10.1-28.83C179.1,171.34,176.57,166.2,172.77,166.2Z"/><path class="cls-2" d="M68.93,72.36A17.66,17.66,0,0,0,86,73.5c4.94-2.41,7.19-7.06,5.77-11.94A20.32,20.32,0,0,0,88.59,56,21.71,21.71,0,0,1,85.45,36.5L85,36.15c-11.17,1.36-21.47,9.67-22.78,18.69C61.31,61.4,62.18,67.66,68.93,72.36Z"/><path class="cls-2" d="M83.88,80.88c-4.61,0-9.22,0-13.83-.06a8.42,8.42,0,0,0-3.48.58c-.2.18-.69.46-.8.76-1.09,3.17-2.25,6.33-3.11,9.51-.33,1.2,1.18,2,4,2,6.62,0,13.24.09,19.85.08,3.43,0,4.72-.68,4.32-2.27-.73-2.92-1.67-5.82-2.48-8.73C88,81.47,86.57,80.88,83.88,80.88Z"/><path class="cls-2" d="M84,97l-1.43,0a10.59,10.59,0,0,0-2.42-.18l-4.27.07-4.27-.07A10.59,10.59,0,0,0,69.2,97l-1.43,0c-5.85.17-8.22,2.49-8.13,8.47.17,10.67.37,21.35.89,32,.81,17,1.91,33.91,5,50.65,1.09,5.79,2.34,11.53,5.15,16.81a6.83,6.83,0,0,0,3.59,3.45s0,.12.06.16c.22.05.36,0,.56,0a4.48,4.48,0,0,0,1.11.07,4.86,4.86,0,0,0,1.36-.18c.17-.05.3,0,.48-.07,0,0,0-.09,0-.12A7,7,0,0,0,81.07,205c2.8-5.28,4.06-11,5.14-16.81,3.13-16.74,4.22-33.69,5-50.65.52-10.66.72-21.34.89-32C92.23,99.5,89.86,97.18,84,97Z"/></svg>