<svg id="Layer_1" data-name="Layer 1" xmlns="http://www.w3.org/2000/svg" viewBox="0 0 950.97 239.49"><defs><style>.cls-1{fill:#231f20;}</style></defs><title>logo</title><path class="cls-1" d="M300.66,180.58a16.35,16.35,0,0,1,5.09-12,17.48,17.48,0,0,1,12.9-5.09,18.85,18.85,0,0,1,13.15,4.85,16.65,16.65,0,0,1,0,24.4,18.85,18.85,0,0,1-13.15,4.85,17.44,17.44,0,0,1-12.9-5.09A16.34,16.34,0,0,1,300.66,180.58Zm4,38.6H333.1V332.85H304.68Z" transform="translate(-64.51 -150.19)"/><path class="cls-1" d="M350.48,219.18h27v18.23H378a39.85,39.85,0,0,1,12.31-14.8q8.3-6.27,22.5-6.27,11.37,0,19.3,3.79a36.37,36.37,0,0,1,12.9,9.94,37.68,37.68,0,0,1,7.11,14.21,65.52,65.52,0,0,1,2.13,16.81v71.76H425.78V275.3q0-4.73-.47-10.54a38.12,38.12,0,0,0-2.49-10.89,20.4,20.4,0,0,0-6.27-8.52q-4.26-3.43-11.61-3.44A27.07,27.07,0,0,0,393,244.28a23.11,23.11,0,0,0-8.06,6.39,25.41,25.41,0,0,0-4.61,9.24,41.06,41.06,0,0,0-1.42,10.89v62.05H350.48Z" transform="translate(-64.51 -150.19)"/><path class="cls-1" d="M471.15,153.82h28.42V266.3l43.81-47.12h36.47L531.06,270.8l51.86,62.05H545.27l-45.23-58h-.47v58H471.15Z" transform="translate(-64.51 -150.19)"/><path class="cls-1" d="M585.08,153.82h28.41v179H585.08Z" transform="translate(-64.51 -150.19)"/><path class="cls-1" d="M627.28,180.58a16.35,16.35,0,0,1,5.09-12,17.48,17.48,0,0,1,12.9-5.09,18.85,18.85,0,0,1,13.15,4.85,16.65,16.65,0,0,1,0,24.4,18.85,18.85,0,0,1-13.15,4.85,17.44,17.44,0,0,1-12.9-5.09A16.34,16.34,0,0,1,627.28,180.58Zm4,38.6h28.42V332.85H631.3Z" transform="translate(-64.51 -150.19)"/><path class="cls-1" d="M677.1,219.18h27v18.23h.48a39.85,39.85,0,0,1,12.31-14.8q8.29-6.27,22.5-6.27,11.37,0,19.3,3.79a36.46,36.46,0,0,1,12.9,9.94,37.68,37.68,0,0,1,7.11,14.21,65.52,65.52,0,0,1,2.13,16.81v71.76H752.4V275.3q0-4.73-.47-10.54a38.12,38.12,0,0,0-2.49-10.89,20.4,20.4,0,0,0-6.27-8.52q-4.26-3.43-11.61-3.44a27.15,27.15,0,0,0-12,2.37,23.07,23.07,0,0,0-8.05,6.39,25.41,25.41,0,0,0-4.61,9.24,41.06,41.06,0,0,0-1.43,10.89v62.05H677.1Z" transform="translate(-64.51 -150.19)"/><path class="cls-1" d="M914.33,219.18V322.66a95.52,95.52,0,0,1-3.79,27.83,54,54,0,0,1-11.72,21.07,52.92,52.92,0,0,1-20,13.38q-12.09,4.74-28.66,4.74a109.54,109.54,0,0,1-30.07-4A67.1,67.1,0,0,1,793.79,371l17.05-23.21a69.66,69.66,0,0,0,17.76,12.08,50.4,50.4,0,0,0,21.32,4.26q10.17,0,17.16-2.84a27.72,27.72,0,0,0,11.13-7.81,30,30,0,0,0,5.92-12A62.7,62.7,0,0,0,885.91,326v-8.29h-.47a37.48,37.48,0,0,1-16.34,12.43,54.9,54.9,0,0,1-20.84,4.15,56.65,56.65,0,0,1-23.21-4.62,55.54,55.54,0,0,1-17.88-12.43,54.11,54.11,0,0,1-11.48-18.47,63.72,63.72,0,0,1-4-22.74,70.77,70.77,0,0,1,3.79-23.44,54.2,54.2,0,0,1,11.13-18.95A52.78,52.78,0,0,1,824.22,221a57,57,0,0,1,23.56-4.62,53.83,53.83,0,0,1,22.5,4.73,36.57,36.57,0,0,1,16.58,15.16h.47v-17Zm-60.62,22.73A36.31,36.31,0,0,0,840,244.4a30.27,30.27,0,0,0-17.41,17.52,37.52,37.52,0,0,0-2.48,13.86,32.75,32.75,0,0,0,2.48,12.78,32.16,32.16,0,0,0,7,10.42,33.19,33.19,0,0,0,10.66,7.11,33.58,33.58,0,0,0,13.26,2.6,36.4,36.4,0,0,0,14.09-2.6,32.54,32.54,0,0,0,10.65-7A29.82,29.82,0,0,0,885,288.56a36.56,36.56,0,0,0,2.37-13.26q0-14.91-9-24.15T853.71,241.91Z" transform="translate(-64.51 -150.19)"/><path class="cls-1" d="M993,250.67q-8.29-11.59-22.26-11.6a23.85,23.85,0,0,0-11.13,2.84,9.67,9.67,0,0,0-5.44,9.24,8,8,0,0,0,4.5,7.58,49.09,49.09,0,0,0,11.36,4q6.87,1.67,14.8,3.44a58.32,58.32,0,0,1,14.8,5.44A32.36,32.36,0,0,1,1011,281.7q4.5,6.39,4.5,17.52,0,10.18-4.38,17.17a34.53,34.53,0,0,1-11.37,11.25A50.46,50.46,0,0,1,984,333.79a82.87,82.87,0,0,1-17.52,1.9,75.43,75.43,0,0,1-24.39-3.79,46.28,46.28,0,0,1-19.89-13.74l18.94-17.76a53.44,53.44,0,0,0,11.72,10.07,28.4,28.4,0,0,0,15.28,3.91,30.09,30.09,0,0,0,6.39-.72,20.88,20.88,0,0,0,6.16-2.36,14.82,14.82,0,0,0,4.62-4.15,9.75,9.75,0,0,0,1.77-5.8c0-3.94-1.5-6.87-4.5-8.76A40.16,40.16,0,0,0,971.21,288q-6.87-1.77-14.8-3.31a57.41,57.41,0,0,1-14.81-5,30.93,30.93,0,0,1-11.36-9.59q-4.5-6.15-4.5-17a33.15,33.15,0,0,1,3.91-16.46A34.25,34.25,0,0,1,940,225.1a44.41,44.41,0,0,1,14.68-6.63,67.08,67.08,0,0,1,39.31,1.77,36.83,36.83,0,0,1,18,13.38Z" transform="translate(-64.51 -150.19)"/><path class="cls-1" d="M169.27,150.19A104.76,104.76,0,1,0,274,255,104.76,104.76,0,0,0,169.27,150.19ZM144.38,270.54c-.71,14.84-1.67,29.68-4.41,44.33-.94,5.06-2,10.09-4.5,14.71a6,6,0,0,1-2.76,2.93s0,.08,0,.11-.27,0-.42.06a5.28,5.28,0,0,1-2.16.09,4.29,4.29,0,0,1-.49,0s0-.1,0-.14a6,6,0,0,1-3.15-3c-2.45-4.62-3.55-9.65-4.5-14.71-2.74-14.65-3.69-29.49-4.41-44.33-.45-9.33-.63-18.68-.77-28-.08-5.23,2-7.26,7.11-7.41l1.25,0a9.68,9.68,0,0,1,2.12-.15l3.74.06,3.74-.06a9.51,9.51,0,0,1,2.11.15l1.25,0c5.13.15,7.2,2.18,7.12,7.41C145,251.86,144.83,261.21,144.38,270.54Zm-25-40.11c.75-2.79,1.76-5.55,2.72-8.32.09-.27.53-.51.7-.67a7.37,7.37,0,0,1,3-.51l12.1,0c2.36,0,3.62.52,3.92,1.6.7,2.55,1.52,5.09,2.17,7.64.35,1.4-.78,2-3.78,2-5.79,0-11.59,0-17.38-.07C120.39,232.13,119.07,231.48,119.36,230.43Zm20.39-15.91a15.44,15.44,0,0,1-14.9-1c-5.91-4.11-6.68-9.59-5.85-15.33,1.14-7.9,10.17-15.18,19.94-16.37l.37.31a19,19,0,0,0,2.74,17.05,17.52,17.52,0,0,1,2.74,4.88C146,208.35,144.07,212.42,139.75,214.52Zm80.14,89.6-8.83,25.24c-1.63,4.65-6.68,4.65-8.31,0l-8.84-25.24c-1.38-4,.83-8.46,4.16-8.46h17.67C219.07,295.66,221.28,300.16,219.89,304.12Zm.42-27.51v14.82H193.75V220.22l-4.81-4.37-5.68,4.41-.75,32.28-3.6,5.66-4.35-5.32.38-39s.19-6.79,11.92-5.66c0,0,5.34-1.65,6.89-5v-5.08c0-8.16,6-14.83,13.28-14.83s13.28,6.67,13.28,14.83Z" transform="translate(-64.51 -150.19)"/></svg>